<mxfile host="app.diagrams.net" modified="2023-12-01T13:19:13.096Z" agent="Mozilla/5.0 (Windows NT 10.0; Win64; x64) AppleWebKit/537.36 (KHTML, like Gecko) Chrome/119.0.0.0 Safari/537.36" etag="1CuFSDowvpOyz-lkzMJM" version="22.1.5" type="github">
  <diagram id="C5RBs43oDa-KdzZeNtuy" name="Page-1">
    <mxGraphModel dx="1474" dy="757" grid="1" gridSize="10" guides="1" tooltips="1" connect="1" arrows="1" fold="1" page="1" pageScale="1" pageWidth="3500" pageHeight="1500" math="0" shadow="0">
      <root>
        <mxCell id="WIyWlLk6GJQsqaUBKTNV-0" />
        <mxCell id="WIyWlLk6GJQsqaUBKTNV-1" parent="WIyWlLk6GJQsqaUBKTNV-0" />
        <mxCell id="fm0C9-tIpsz7Smg102zX-2" style="edgeStyle=orthogonalEdgeStyle;rounded=0;orthogonalLoop=1;jettySize=auto;html=1;entryX=0.5;entryY=0;entryDx=0;entryDy=0;" parent="WIyWlLk6GJQsqaUBKTNV-1" source="fm0C9-tIpsz7Smg102zX-0" edge="1">
          <mxGeometry relative="1" as="geometry">
            <mxPoint x="100" y="160" as="targetPoint" />
          </mxGeometry>
        </mxCell>
        <mxCell id="fm0C9-tIpsz7Smg102zX-0" value="displayDesign()" style="ellipse;whiteSpace=wrap;html=1;fillColor=#d5e8d4;strokeColor=#82b366;" parent="WIyWlLk6GJQsqaUBKTNV-1" vertex="1">
          <mxGeometry x="40" y="40" width="120" height="80" as="geometry" />
        </mxCell>
        <mxCell id="G0TleMdLwISE88nvb8R2-0" value="&lt;font style=&quot;font-size: 8px;&quot;&gt;OUTPUT&lt;br&gt;STR_DESIGN_STRING&lt;br&gt;.repeat(INT_DESIGN&lt;br&gt;_LENGTH)&lt;/font&gt;" style="shape=parallelogram;perimeter=parallelogramPerimeter;whiteSpace=wrap;html=1;fixedSize=1;" vertex="1" parent="WIyWlLk6GJQsqaUBKTNV-1">
          <mxGeometry x="40" y="160" width="120" height="60" as="geometry" />
        </mxCell>
        <mxCell id="G0TleMdLwISE88nvb8R2-3" value="" style="edgeStyle=orthogonalEdgeStyle;rounded=0;orthogonalLoop=1;jettySize=auto;html=1;" edge="1" parent="WIyWlLk6GJQsqaUBKTNV-1" source="G0TleMdLwISE88nvb8R2-1" target="G0TleMdLwISE88nvb8R2-2">
          <mxGeometry relative="1" as="geometry" />
        </mxCell>
        <mxCell id="G0TleMdLwISE88nvb8R2-1" value="getInput&lt;br&gt;(intDayCount)" style="ellipse;whiteSpace=wrap;html=1;fillColor=#d5e8d4;strokeColor=#82b366;" vertex="1" parent="WIyWlLk6GJQsqaUBKTNV-1">
          <mxGeometry x="200" y="40" width="120" height="80" as="geometry" />
        </mxCell>
        <mxCell id="G0TleMdLwISE88nvb8R2-8" value="" style="edgeStyle=orthogonalEdgeStyle;rounded=0;orthogonalLoop=1;jettySize=auto;html=1;" edge="1" parent="WIyWlLk6GJQsqaUBKTNV-1" source="G0TleMdLwISE88nvb8R2-2" target="G0TleMdLwISE88nvb8R2-7">
          <mxGeometry relative="1" as="geometry" />
        </mxCell>
        <mxCell id="G0TleMdLwISE88nvb8R2-2" value="intIntegerInput" style="shape=hexagon;perimeter=hexagonPerimeter2;whiteSpace=wrap;html=1;fixedSize=1;" vertex="1" parent="WIyWlLk6GJQsqaUBKTNV-1">
          <mxGeometry x="200" y="160" width="120" height="80" as="geometry" />
        </mxCell>
        <mxCell id="G0TleMdLwISE88nvb8R2-10" value="" style="edgeStyle=orthogonalEdgeStyle;rounded=0;orthogonalLoop=1;jettySize=auto;html=1;" edge="1" parent="WIyWlLk6GJQsqaUBKTNV-1" source="G0TleMdLwISE88nvb8R2-7" target="G0TleMdLwISE88nvb8R2-9">
          <mxGeometry relative="1" as="geometry" />
        </mxCell>
        <mxCell id="G0TleMdLwISE88nvb8R2-7" value="TRY&lt;br&gt;OUTPUT &quot;Enter hours worked on day &quot; + (intDayCount + 1)" style="rounded=1;whiteSpace=wrap;html=1;" vertex="1" parent="WIyWlLk6GJQsqaUBKTNV-1">
          <mxGeometry x="200" y="280" width="120" height="60" as="geometry" />
        </mxCell>
        <mxCell id="G0TleMdLwISE88nvb8R2-12" value="" style="edgeStyle=orthogonalEdgeStyle;rounded=0;orthogonalLoop=1;jettySize=auto;html=1;" edge="1" parent="WIyWlLk6GJQsqaUBKTNV-1" source="G0TleMdLwISE88nvb8R2-9" target="G0TleMdLwISE88nvb8R2-11">
          <mxGeometry relative="1" as="geometry" />
        </mxCell>
        <mxCell id="G0TleMdLwISE88nvb8R2-9" value="INPUT&lt;br&gt;intIntegerInput" style="shape=parallelogram;perimeter=parallelogramPerimeter;whiteSpace=wrap;html=1;fixedSize=1;rounded=1;" vertex="1" parent="WIyWlLk6GJQsqaUBKTNV-1">
          <mxGeometry x="200" y="380" width="120" height="60" as="geometry" />
        </mxCell>
        <mxCell id="G0TleMdLwISE88nvb8R2-14" style="edgeStyle=orthogonalEdgeStyle;rounded=0;orthogonalLoop=1;jettySize=auto;html=1;entryX=0;entryY=0.5;entryDx=0;entryDy=0;" edge="1" parent="WIyWlLk6GJQsqaUBKTNV-1" source="G0TleMdLwISE88nvb8R2-11" target="G0TleMdLwISE88nvb8R2-13">
          <mxGeometry relative="1" as="geometry" />
        </mxCell>
        <mxCell id="G0TleMdLwISE88nvb8R2-15" value="TRUE" style="edgeLabel;html=1;align=center;verticalAlign=middle;resizable=0;points=[];" vertex="1" connectable="0" parent="G0TleMdLwISE88nvb8R2-14">
          <mxGeometry x="-0.1504" y="1" relative="1" as="geometry">
            <mxPoint as="offset" />
          </mxGeometry>
        </mxCell>
        <mxCell id="G0TleMdLwISE88nvb8R2-19" style="edgeStyle=orthogonalEdgeStyle;rounded=0;orthogonalLoop=1;jettySize=auto;html=1;entryX=0.5;entryY=0;entryDx=0;entryDy=0;" edge="1" parent="WIyWlLk6GJQsqaUBKTNV-1" source="G0TleMdLwISE88nvb8R2-11" target="G0TleMdLwISE88nvb8R2-18">
          <mxGeometry relative="1" as="geometry" />
        </mxCell>
        <mxCell id="G0TleMdLwISE88nvb8R2-11" value="CATCH&lt;br&gt;InputMismatch&lt;br&gt;Exception?" style="rhombus;whiteSpace=wrap;html=1;rounded=1;" vertex="1" parent="WIyWlLk6GJQsqaUBKTNV-1">
          <mxGeometry x="197.5" y="480" width="125" height="120" as="geometry" />
        </mxCell>
        <mxCell id="G0TleMdLwISE88nvb8R2-17" value="" style="edgeStyle=orthogonalEdgeStyle;rounded=0;orthogonalLoop=1;jettySize=auto;html=1;" edge="1" parent="WIyWlLk6GJQsqaUBKTNV-1" source="G0TleMdLwISE88nvb8R2-13" target="G0TleMdLwISE88nvb8R2-16">
          <mxGeometry relative="1" as="geometry" />
        </mxCell>
        <mxCell id="G0TleMdLwISE88nvb8R2-13" value="OUTPUT&lt;br&gt;&quot;Invalid input. &lt;br&gt;Enter integer &lt;br&gt;values only.&quot;" style="shape=parallelogram;perimeter=parallelogramPerimeter;whiteSpace=wrap;html=1;fixedSize=1;" vertex="1" parent="WIyWlLk6GJQsqaUBKTNV-1">
          <mxGeometry x="400" y="510" width="120" height="60" as="geometry" />
        </mxCell>
        <mxCell id="G0TleMdLwISE88nvb8R2-16" value="return&lt;br&gt;getInput&lt;br&gt;(intDayCount)" style="shape=process;whiteSpace=wrap;html=1;backgroundOutline=1;" vertex="1" parent="WIyWlLk6GJQsqaUBKTNV-1">
          <mxGeometry x="560" y="510" width="120" height="60" as="geometry" />
        </mxCell>
        <mxCell id="G0TleMdLwISE88nvb8R2-18" value="RETURN&lt;br&gt;intIntegerInput" style="ellipse;whiteSpace=wrap;html=1;fillColor=#f5f5f5;fontColor=#333333;strokeColor=#666666;" vertex="1" parent="WIyWlLk6GJQsqaUBKTNV-1">
          <mxGeometry x="200" y="640" width="120" height="80" as="geometry" />
        </mxCell>
      </root>
    </mxGraphModel>
  </diagram>
</mxfile>
